<?xml version="1.0" encoding="UTF-8"?>
<svg id="_Слой_1" xmlns="http://www.w3.org/2000/svg" version="1.1" viewBox="0 0 484 154">
  <!-- Generator: Adobe Illustrator 30.0.0, SVG Export Plug-In . SVG Version: 2.1.1 Build 123)  -->
  <defs>
    <style>
      .st0 {
        fill: #a592e8;
      }

      .st1 {
        fill: #f5ace2;
      }
    </style>
  </defs>
  <g>
    <path class="st1" d="M75.9,127.4c0,5.1-2.1,9.8-5.4,13.1-3.4,3.4-8,5.4-13.1,5.4h-31.1c-11.3,0-20.4-9.2-20.4-20.4v-31.1c0-10.3,8.3-18.6,18.6-18.6s27.1,5.8,36.5,15.1c9.3,9.3,15.1,22.2,15.1,36.5h0Z"/>
    <path class="st1" d="M135.8,62.1c-11.1,4.9-18.2,12-23.1,23.1-4.5,10.2-18.9,10.2-23.4,0-4.9-11.1-12-18.2-23.1-23.1-10.2-4.5-10.2-18.9,0-23.4,11.1-4.9,18.2-12,23.1-23.1,4.5-10.2,18.9-10.2,23.4,0,4.9,11.1,12,18.2,23.1,23.1,10.2,4.5,10.2,18.9,0,23.4h0Z"/>
  </g>
  <g>
    <g>
      <g>
        <path class="st0" d="M210.4,84.2l.8,1.4v-1.4h-.8ZM210.4,84.2l.8,1.4v-1.4h-.8ZM210.4,84.2l.8,1.4v-1.4h-.8ZM210.4,84.2l.8,1.4v-1.4h-.8ZM210.4,84.2l.8,1.4v-1.4h-.8Z"/>
        <path class="st0" d="M270.7,36.5c-1.7-5.5-4.3-10.5-7.7-14.8-3.4-4.3-7.6-7.7-12.6-10.1-5-2.4-10.7-3.6-17-3.6h-30.5c-2.6,0-4.8.9-6.6,2.7s-2.7,4-2.7,6.6v73.8c0,2.6.9,4.8,2.7,6.6,1.8,1.8,4,2.7,6.6,2.7h30.5c8.5,0,15.9-2.1,21.7-6.3,5.9-4.1,10.4-9.8,13.5-16.8,3-6.9,4.6-14.7,4.6-23.1s-.9-12.2-2.5-17.7h0ZM244.4,78.9c-3.1,2.5-7.2,3.8-12.2,3.8h-19.6V25.7h19.6c3.7,0,7,.8,9.6,2.2,2.7,1.5,4.9,3.5,6.6,6.1,1.8,2.6,3.1,5.7,3.9,9.1.9,3.5,1.3,7.2,1.3,11.1s-.8,10-2.3,14.4c-1.5,4.3-3.8,7.7-7,10.3h0ZM211.1,84.2v1.4l-.8-1.4h.8Z"/>
      </g>
      <g>
        <path class="st0" d="M301.5,13.5v2.4c0,3-.9,5.1-2.5,6.3-1.5,1.1-3.9,1.6-7.1,1.6s-5.6-.6-7-1.7c-1.6-1.2-2.4-3.3-2.4-6.2v-2.4c0-3,.9-5.1,2.6-6.3,1.6-1.1,3.8-1.6,6.9-1.6s5.7.6,7.2,1.7c1.6,1.2,2.4,3.3,2.4,6.2h0Z"/>
        <path class="st0" d="M301.1,38.4v52.7c0,2.6-.9,4.8-2.6,6.6-1.7,1.8-4,2.7-6.6,2.7s-4.8-.9-6.6-2.7c-1.7-1.8-2.6-4-2.6-6.6v-52.7c0-2.6.9-4.8,2.6-6.6,1.7-1.8,3.9-2.7,6.6-2.7s4.8.9,6.6,2.7c1.7,1.8,2.6,4,2.6,6.6Z"/>
      </g>
      <path class="st0" d="M378.2,45.6c-3.2-5.5-7.6-9.9-13-13-5.4-3.1-11.6-4.7-18.3-4.7s-12.9,1.6-18.3,4.7-9.8,7.5-13,13c-3.2,5.5-4.9,12-4.9,19.2s1.6,13.7,4.9,19.2c3.2,5.5,7.6,9.9,13.1,13,5.4,3.1,11.6,4.7,18.3,4.7s12.8-1.6,18.3-4.7c5.4-3.1,9.8-7.5,13.1-13,3.2-5.5,4.9-12,4.9-19.2s-1.6-13.7-4.9-19.2h0ZM355.8,82.2c-2.7,1.6-5.7,2.5-9,2.5s-6.3-.8-9-2.5c-2.7-1.6-4.9-4-6.5-6.9-1.6-3-2.4-6.5-2.4-10.5s.8-7.6,2.4-10.6,3.8-5.3,6.5-6.9c2.7-1.6,5.7-2.5,9-2.5s6.3.8,9,2.5c2.7,1.6,4.9,4,6.5,6.9s2.4,6.5,2.4,10.6-.8,7.5-2.4,10.5c-1.6,2.9-3.8,5.3-6.5,6.9Z"/>
      <path class="st0" d="M415.6,23.6c0,1.8-.7,3.3-2,4.5-1.3,1.1-2.9,1.6-4.9,1.6s-1.1,0-1.8-.2c-.6-.2-1.2-.4-1.8-.7l-12.8-6.8c-1.8-1-3.1-2.2-4-3.5-1-1.4-1.5-3-1.5-4.5,0-2.4,1-4.4,2.9-5.8,1.8-1.3,3.6-1.9,5.3-1.9s2.8.3,4.1,1c1.2.6,2.2,1.4,3.2,2.2l11,9.7c1.5,1.4,2.3,3,2.3,4.6h0Z"/>
      <path class="st0" d="M478.3,79.8c0,4.7-1.4,8.7-4.2,12.1-2.7,3.2-6.1,5.7-10.2,7.4-4,1.7-8.1,2.5-12.3,2.5s-10.4-.9-15.5-2.7c-5.3-1.8-9.7-5.1-13.2-9.8h0c-1-1.5-1.5-3.4-1.4-5.6.1-2.4,1.5-4.4,4-6,1.7-1,3.4-1.5,5.3-1.3,1.9.1,3.7,1.1,5.4,2.8,2.3,2.4,4.8,4.2,7.4,5.5s5.7,1.9,9.5,1.9c1.1,0,2.5-.3,3.9-.5,1.3-.2,2.3-.8,3.3-1.7.8-.8,1.2-2,1.2-3.8s-.5-2.5-1.4-3.3c-1.1-1-2.7-1.8-4.6-2.5-2-.7-4.3-1.5-6.8-2.1-2.7-.8-5.5-1.6-8.2-2.6-2.9-1-5.5-2.2-7.9-3.8-2.5-1.6-4.5-3.8-6.1-6.4-1.6-2.7-2.4-6.1-2.4-10.1s1.3-8.5,3.9-11.8c2.5-3.2,5.8-5.6,9.8-7.3,4-1.7,8.2-2.5,12.5-2.5s5.6.3,8.6,1c3,.7,5.9,1.7,8.7,3.2,2.8,1.5,5.2,3.5,7.1,6,1.1,1.5,1.8,3.3,2,5.4.2,2.3-.8,4.4-3,6.2-1.6,1.3-3.4,1.8-5.5,1.7-2-.1-3.8-.9-5.1-2.1l-.2-.2c-1.3-1.7-3.1-3-5.2-4-2.2-1-4.8-1.5-7.7-1.5s-2.5.1-3.8.4c-1.2.2-2.3.8-3.2,1.6-.8.7-1.2,1.9-1.2,3.5s.5,2.7,1.4,3.5c1.1,1,2.7,1.9,4.6,2.5,2.1.7,4.5,1.4,6.9,2.1,2.6.7,5.2,1.5,7.9,2.5,2.8,1,5.3,2.3,7.6,3.9,2.4,1.6,4.3,3.8,5.8,6.4,1.5,2.6,2.2,6,2.2,10h0Z"/>
    </g>
    <g>
      <path class="st0" d="M208,124.3l-9.4,22.1c-.2.5-.5,1-.9,1.3s-.9.5-1.4.5c-.8,0-1.4-.2-1.7-.7s-.6-1-.6-1.6,0-.5.1-.8l10.8-26c.2-.6.6-1,1.1-1.3.5-.3,1-.5,1.5-.4.5,0,1,.2,1.5.5.5.3.8.7,1,1.3l10.7,25.5c.1.4.2.7.2,1,0,.8-.2,1.4-.8,1.9s-1.1.7-1.7.7-1-.2-1.4-.5-.8-.8-1-1.3l-9.4-21.8,1.3-.3h0ZM200,141.1l2.4-5h11.7l.8,5h-15Z"/>
      <path class="st0" d="M243.3,115.7c.8,0,1.4.2,1.9.7s.7,1.1.7,1.9v26.9c0,.8-.2,1.4-.7,1.9s-1.1.8-1.9.8-1.4-.2-1.9-.8-.7-1.1-.7-1.9v-2.1l1,.4c0,.4-.2.8-.6,1.4-.4.5-1,1.1-1.6,1.6-.7.5-1.5,1-2.5,1.3-.9.4-2,.5-3.1.5-2,0-3.8-.5-5.4-1.5-1.6-1-2.9-2.5-3.9-4.3-.9-1.8-1.4-3.9-1.4-6.2s.5-4.5,1.4-6.3,2.2-3.2,3.8-4.3c1.6-1,3.4-1.5,5.3-1.5s2.4.2,3.4.6,2,.9,2.7,1.4,1.4,1.2,1.8,1.8c.4.6.6,1.1.6,1.5l-1.6.6v-11.7c0-.8.2-1.4.7-1.9s1.1-.8,1.9-.8ZM234.5,143.6c1.3,0,2.4-.3,3.4-1s1.7-1.5,2.2-2.6c.5-1.1.8-2.3.8-3.7s-.3-2.6-.8-3.8c-.5-1.1-1.3-2-2.2-2.6s-2.1-1-3.4-1-2.4.3-3.3,1-1.7,1.5-2.2,2.6c-.5,1.1-.8,2.3-.8,3.8s.3,2.6.8,3.7c.5,1.1,1.3,2,2.2,2.6,1,.6,2.1,1,3.3,1Z"/>
      <path class="st0" d="M252.6,124.6c.5,0,1.1.1,1.5.4.5.3.8.7,1,1.2l6.4,14.6-1,.4,6.5-15c.5-1.2,1.3-1.7,2.3-1.7.7,0,1.3.2,1.8.7s.7,1,.7,1.7,0,.4-.1.7c0,.2-.2.5-.2.7l-8.1,18c-.5,1-1.2,1.6-2.2,1.7-.5,0-1.1,0-1.6-.3-.5-.3-.9-.7-1.2-1.3l-8.1-18c0-.2-.1-.3-.2-.6,0-.2-.1-.5-.1-.8,0-.5.2-1,.7-1.5.5-.5,1.1-.8,1.9-.8h0Z"/>
      <path class="st0" d="M286.7,148.4c-2.5,0-4.6-.5-6.4-1.5-1.8-1-3.2-2.4-4.2-4.2s-1.5-3.8-1.5-6,.5-4.8,1.6-6.7,2.4-3.3,4.2-4.2,3.5-1.5,5.4-1.5,2.9.3,4.2.9,2.5,1.5,3.5,2.5c1,1.1,1.8,2.3,2.4,3.7.6,1.4.9,2.9.9,4.4,0,.7-.3,1.3-.8,1.7-.5.4-1.1.7-1.8.7h-16.6l-1.3-4.4h16l-1,.9v-1.2c0-.8-.4-1.6-.9-2.3-.5-.7-1.2-1.2-2-1.6s-1.7-.6-2.5-.6-1.7.1-2.4.3c-.8.2-1.4.6-2,1.2-.5.5-1,1.3-1.3,2.2-.3.9-.5,2.1-.5,3.5s.3,2.9,1,4c.7,1.1,1.5,1.9,2.5,2.5s2.1.8,3.3.8,1.9,0,2.6-.3,1.2-.4,1.5-.6c.4-.2.8-.5,1.1-.6.5-.3,1-.4,1.5-.4s1.2.2,1.6.7c.4.4.6.9.6,1.5s-.4,1.5-1.2,2.1c-.8.6-1.8,1.2-3.2,1.7s-2.8.7-4.2.7h0Z"/>
      <path class="st0" d="M313.9,124.2c2.2,0,3.8.5,4.9,1.3,1.1.9,1.9,2.1,2.3,3.6.4,1.5.6,3.2.6,5v11.2c0,.8-.2,1.4-.7,1.9s-1.1.8-1.9.8-1.4-.2-1.9-.8-.7-1.1-.7-1.9v-11.2c0-1-.1-1.8-.4-2.6s-.7-1.4-1.3-1.8c-.6-.5-1.5-.7-2.7-.7s-2.1.2-2.9.7c-.8.5-1.4,1.1-1.8,1.8-.4.8-.6,1.6-.6,2.6v11.2c0,.8-.2,1.4-.7,1.9s-1.1.8-1.9.8-1.4-.2-1.9-.8-.7-1.1-.7-1.9v-18c0-.8.2-1.4.7-1.9s1.1-.8,1.9-.8,1.4.2,1.9.8.7,1.1.7,1.9v1.9h-.7c.3-.6.6-1.2,1.1-1.7s1.1-1.1,1.7-1.6c.7-.5,1.4-.9,2.3-1.2s1.8-.5,2.7-.5h0Z"/>
      <path class="st0" d="M327.6,125.1h10.3c.7,0,1.3.2,1.7.7.5.5.7,1,.7,1.7s-.2,1.2-.7,1.7c-.5.5-1,.7-1.7.7h-10.3c-.7,0-1.3-.2-1.7-.7-.5-.5-.7-1-.7-1.7s.2-1.2.7-1.7c.5-.5,1-.7,1.7-.7ZM332.3,119.6c.8,0,1.4.2,1.8.8s.7,1.1.7,1.9v19.4c0,.4,0,.7.2,1s.4.5.7.6c.3.1.6.2.9.2s.7,0,1-.2c.3-.1.6-.2,1-.2s.8.2,1.1.6c.3.4.5.9.5,1.6s-.4,1.5-1.3,2c-.9.5-1.8.8-2.8.8s-1.3,0-2-.2c-.7,0-1.4-.3-2.1-.7-.7-.4-1.2-1-1.6-1.8-.4-.8-.7-1.9-.7-3.3v-19.6c0-.8.2-1.4.8-1.9.5-.5,1.1-.8,1.9-.8h0Z"/>
      <path class="st0" d="M362.4,124.6c.8,0,1.4.2,1.9.8s.7,1.1.7,1.9v11.1c0,3.1-.9,5.5-2.6,7.3s-4.2,2.7-7.4,2.7-5.7-.9-7.4-2.7c-1.7-1.8-2.5-4.2-2.5-7.3v-11.1c0-.8.2-1.4.7-1.9s1.1-.8,1.9-.8,1.4.2,1.9.8.7,1.1.7,1.9v11.1c0,1.8.4,3.1,1.2,3.9.8.9,2,1.3,3.5,1.3s2.8-.4,3.6-1.3c.8-.9,1.2-2.2,1.2-3.9v-11.1c0-.8.2-1.4.7-1.9s1.1-.8,1.9-.8h0Z"/>
      <path class="st0" d="M373.3,147.9c-.8,0-1.4-.2-1.9-.8s-.7-1.1-.7-1.9v-18c0-.8.2-1.4.7-1.9s1.1-.8,1.9-.8,1.4.2,1.9.8.7,1.1.7,1.9v4.1l-.3-2.9c.3-.7.7-1.3,1.2-1.8s1.1-1,1.7-1.3c.6-.4,1.3-.6,2-.8s1.5-.3,2.2-.3,1.6.2,2.2.7c.6.5.9,1.1.9,1.7,0,1-.2,1.7-.7,2.1s-1,.6-1.6.6-1,0-1.5-.3-1-.3-1.5-.3-1,.1-1.6.4c-.5.2-1,.6-1.5,1.2-.5.5-.8,1.2-1.1,1.9s-.4,1.7-.4,2.7v10.3c0,.8-.2,1.4-.7,1.9s-1.1.8-1.9.8h0Z"/>
      <path class="st0" d="M408.1,124.2c.8,0,1.4.2,1.9.7s.7,1.1.7,1.9v18.4c0,.8-.2,1.4-.7,1.9s-1.1.8-1.9.8-1.4-.2-1.9-.8-.7-1.1-.7-1.9v-2.1l1,.4c0,.4-.2.8-.6,1.4-.4.5-1,1.1-1.7,1.6-.7.5-1.5,1-2.5,1.3-.9.4-2,.5-3.1.5-2,0-3.8-.5-5.4-1.5-1.6-1-2.9-2.5-3.8-4.3-.9-1.8-1.4-3.9-1.4-6.2s.5-4.5,1.4-6.3,2.2-3.2,3.8-4.3c1.6-1,3.4-1.5,5.3-1.5s2.4.2,3.4.6,2,.9,2.7,1.4c.8.6,1.4,1.2,1.8,1.8.4.6.6,1.1.6,1.5l-1.6.6v-3.2c0-.8.2-1.4.7-1.9s1.1-.8,1.9-.8ZM399.3,143.6c1.3,0,2.4-.3,3.3-1,1-.6,1.7-1.5,2.2-2.6s.8-2.3.8-3.7-.3-2.6-.8-3.8c-.5-1.1-1.3-2-2.2-2.6-1-.6-2.1-1-3.3-1s-2.3.3-3.3,1-1.7,1.5-2.2,2.6-.8,2.3-.8,3.8.3,2.6.8,3.7c.5,1.1,1.3,2,2.2,2.6,1,.6,2.1,1,3.3,1Z"/>
      <path class="st0" d="M428.6,124.2c2.3,0,4,.6,5.1,1.7s1.8,2.6,2.2,4.3l-.7-.4.3-.7c.3-.7.9-1.4,1.6-2.2.7-.8,1.6-1.4,2.6-2,1-.5,2.2-.8,3.5-.8,2.1,0,3.7.5,4.8,1.3,1.1.9,1.8,2.1,2.2,3.6.4,1.5.6,3.2.6,5v11.2c0,.8-.2,1.4-.7,1.9s-1.1.8-1.9.8-1.4-.2-1.9-.8-.7-1.1-.7-1.9v-11.2c0-1-.1-1.8-.3-2.6s-.7-1.4-1.3-1.8c-.6-.5-1.5-.7-2.6-.7s-2,.2-2.8.7c-.8.5-1.4,1.1-1.8,1.8-.4.8-.6,1.6-.6,2.6v11.2c0,.8-.2,1.4-.7,1.9s-1.1.8-1.9.8-1.4-.2-1.9-.8-.7-1.1-.7-1.9v-11.2c0-1-.1-1.8-.3-2.6s-.7-1.4-1.3-1.8c-.6-.5-1.5-.7-2.6-.7s-2,.2-2.8.7c-.8.5-1.4,1.1-1.8,1.8s-.6,1.6-.6,2.6v11.2c0,.8-.2,1.4-.7,1.9s-1.1.8-1.9.8-1.4-.2-1.9-.8-.7-1.1-.7-1.9v-18c0-.8.2-1.4.7-1.9s1.1-.8,1.9-.8,1.4.2,1.9.8.7,1.1.7,1.9v1.9h-.7c.3-.6.6-1.2,1.1-1.7.5-.6,1-1.1,1.7-1.6.7-.5,1.4-.9,2.2-1.2s1.7-.5,2.7-.5h0Z"/>
      <path class="st0" d="M475.5,124.2c.8,0,1.4.2,1.9.7s.7,1.1.7,1.9v18.4c0,.8-.2,1.4-.7,1.9s-1.1.8-1.9.8-1.4-.2-1.9-.8-.7-1.1-.7-1.9v-2.1l1,.4c0,.4-.2.8-.6,1.4-.4.5-1,1.1-1.7,1.6-.7.5-1.5,1-2.5,1.3-.9.4-2,.5-3.1.5-2,0-3.8-.5-5.4-1.5-1.6-1-2.9-2.5-3.8-4.3-.9-1.8-1.4-3.9-1.4-6.2s.5-4.5,1.4-6.3,2.2-3.2,3.8-4.3c1.6-1,3.4-1.5,5.3-1.5s2.4.2,3.4.6,2,.9,2.7,1.4c.8.6,1.4,1.2,1.8,1.8.4.6.6,1.1.6,1.5l-1.6.6v-3.2c0-.8.2-1.4.7-1.9s1.1-.8,1.9-.8ZM466.7,143.6c1.3,0,2.4-.3,3.3-1,1-.6,1.7-1.5,2.2-2.6s.8-2.3.8-3.7-.3-2.6-.8-3.8c-.5-1.1-1.3-2-2.2-2.6-1-.6-2.1-1-3.3-1s-2.3.3-3.3,1-1.7,1.5-2.2,2.6-.8,2.3-.8,3.8.3,2.6.8,3.7c.5,1.1,1.3,2,2.2,2.6,1,.6,2.1,1,3.3,1Z"/>
    </g>
  </g>
</svg>